<mxfile host="app.diagrams.net" agent="Mozilla/5.0 (Windows NT 10.0; Win64; x64) AppleWebKit/537.36 (KHTML, like Gecko) Chrome/136.0.0.0 Safari/537.36 Edg/136.0.0.0" version="27.1.3" pages="10">
  <diagram name="Context Diagram" id="context1">
    <mxGraphModel dx="2058" dy="804" grid="1" gridSize="10" guides="1" tooltips="1" connect="1" arrows="1" fold="1" page="1" pageScale="1" pageWidth="827" pageHeight="1169" math="0" shadow="0">
      <root>
        <mxCell id="0" />
        <mxCell id="1" parent="0" />
        <mxCell id="system" value="ABC Food Delivery Platform" style="shape=cloud;whiteSpace=wrap;html=1;fillColor=#dae8fc;" parent="1" vertex="1">
          <mxGeometry x="260" y="380" width="280" height="300" as="geometry" />
        </mxCell>
        <mxCell id="admin" value="Admin" style="shape=actor;whiteSpace=wrap;html=1;" parent="1" vertex="1">
          <mxGeometry x="20" y="80" width="60" height="60" as="geometry" />
        </mxCell>
        <mxCell id="restaurant" value="Restaurant Owner" style="shape=actor;whiteSpace=wrap;html=1;" parent="1" vertex="1">
          <mxGeometry x="20" y="730" width="100" height="60" as="geometry" />
        </mxCell>
        <mxCell id="customer" value="Customer" style="shape=actor;whiteSpace=wrap;html=1;" parent="1" vertex="1">
          <mxGeometry x="720" y="70" width="60" height="60" as="geometry" />
        </mxCell>
        <mxCell id="delivery" value="Delivery Partner" style="shape=actor;whiteSpace=wrap;html=1;" parent="1" vertex="1">
          <mxGeometry x="700" y="730" width="100" height="60" as="geometry" />
        </mxCell>
        <mxCell id="line1" style="endArrow=block;entryX=0.25;entryY=0.25;entryDx=0;entryDy=0;entryPerimeter=0;" parent="1" source="admin" target="system" edge="1">
          <mxGeometry relative="1" as="geometry" />
        </mxCell>
        <mxCell id="line2" style="endArrow=block;entryX=0.107;entryY=0.767;entryDx=0;entryDy=0;entryPerimeter=0;" parent="1" source="restaurant" target="system" edge="1">
          <mxGeometry relative="1" as="geometry" />
        </mxCell>
        <mxCell id="line3" style="endArrow=block;entryX=0.789;entryY=0.177;entryDx=0;entryDy=0;entryPerimeter=0;" parent="1" source="customer" target="system" edge="1">
          <mxGeometry relative="1" as="geometry" />
        </mxCell>
        <mxCell id="line4" style="endArrow=block;entryX=0.925;entryY=0.757;entryDx=0;entryDy=0;entryPerimeter=0;" parent="1" source="delivery" target="system" edge="1">
          <mxGeometry relative="1" as="geometry" />
        </mxCell>
      </root>
    </mxGraphModel>
  </diagram>
  <diagram name="Container Diagram" id="container3">
    <mxGraphModel dx="2058" dy="804" grid="1" gridSize="10" guides="1" tooltips="1" connect="1" arrows="1" fold="1" page="1" pageScale="1" pageWidth="3300" pageHeight="4681" math="0" shadow="0">
      <root>
        <mxCell id="0" />
        <mxCell id="1" parent="0" />
        <mxCell id="client" value="Front End UI" style="shape=rectangle;whiteSpace=wrap;html=1;fillColor=#f8cecc;" parent="1" vertex="1">
          <mxGeometry x="20" y="450" width="180" height="60" as="geometry" />
        </mxCell>
        <mxCell id="apim" value="Azure API Management" style="shape=rectangle;whiteSpace=wrap;html=1;fillColor=#fff2cc;" parent="1" vertex="1">
          <mxGeometry x="390" y="450" width="180" height="60" as="geometry" />
        </mxCell>
        <mxCell id="line1" style="endArrow=block;" parent="1" source="client" target="apim" edge="1">
          <mxGeometry relative="1" as="geometry" />
        </mxCell>
        <mxCell id="identityContainer" value="Identity Service" style="swimlane;childLayout=stackLayout;horizontal=0;startSize=20;fillColor=#dae8fc;" parent="1" vertex="1">
          <mxGeometry x="1060" y="70" width="460" height="120" as="geometry" />
        </mxCell>
        <mxCell id="identityFunc" value="IdentityFunction" style="shape=rectangle;whiteSpace=wrap;html=1;" parent="identityContainer" vertex="1">
          <mxGeometry x="20" width="220" height="120" as="geometry" />
        </mxCell>
        <mxCell id="identityDb" value="Azure SQL" style="shape=cylinder;whiteSpace=wrap;html=1;" parent="identityContainer" vertex="1">
          <mxGeometry x="240" width="220" height="120" as="geometry" />
        </mxCell>
        <mxCell id="customerContainer" value="Customer Service" style="swimlane;childLayout=stackLayout;horizontal=0;startSize=20;fillColor=#dae8fc;" parent="1" vertex="1">
          <mxGeometry x="1060" y="260" width="460" height="110" as="geometry" />
        </mxCell>
        <mxCell id="customerFunc" value="CustomerFunction" style="shape=rectangle;whiteSpace=wrap;html=1;" parent="customerContainer" vertex="1">
          <mxGeometry x="20" width="220" height="110" as="geometry" />
        </mxCell>
        <mxCell id="customerDb" value="Azure SQL" style="shape=cylinder;whiteSpace=wrap;html=1;" parent="customerContainer" vertex="1">
          <mxGeometry x="240" width="220" height="110" as="geometry" />
        </mxCell>
        <mxCell id="restaurantContainer" value="Restaurant Service" style="swimlane;childLayout=stackLayout;horizontal=0;startSize=20;fillColor=#dae8fc;" parent="1" vertex="1">
          <mxGeometry x="1060" y="420" width="460" height="100" as="geometry" />
        </mxCell>
        <mxCell id="restaurantFunc" value="RestaurantFunction" style="shape=rectangle;whiteSpace=wrap;html=1;" parent="restaurantContainer" vertex="1">
          <mxGeometry x="20" width="220" height="100" as="geometry" />
        </mxCell>
        <mxCell id="restaurantDb" value="CosmosDB" style="shape=cylinder;whiteSpace=wrap;html=1;" parent="restaurantContainer" vertex="1">
          <mxGeometry x="240" width="220" height="100" as="geometry" />
        </mxCell>
        <mxCell id="cartContainer" value="Cart Service" style="swimlane;childLayout=stackLayout;horizontal=0;startSize=20;fillColor=#dae8fc;" parent="1" vertex="1">
          <mxGeometry x="1060" y="570" width="460" height="100" as="geometry" />
        </mxCell>
        <mxCell id="cartFunc" value="CartFunction" style="shape=rectangle;whiteSpace=wrap;html=1;" parent="cartContainer" vertex="1">
          <mxGeometry x="20" width="220" height="100" as="geometry" />
        </mxCell>
        <mxCell id="cartDb" value="CosmosDB" style="shape=cylinder;whiteSpace=wrap;html=1;" parent="cartContainer" vertex="1">
          <mxGeometry x="240" width="220" height="100" as="geometry" />
        </mxCell>
        <mxCell id="orderContainer" value="Order Service" style="swimlane;childLayout=stackLayout;horizontal=0;startSize=20;fillColor=#dae8fc;" parent="1" vertex="1">
          <mxGeometry x="1060" y="700" width="680" height="120" as="geometry" />
        </mxCell>
        <mxCell id="orderFunc" value="OrderFunction" style="shape=rectangle;whiteSpace=wrap;html=1;" parent="orderContainer" vertex="1">
          <mxGeometry x="20" width="220" height="120" as="geometry" />
        </mxCell>
        <mxCell id="orderDb" value="Azure SQL" style="shape=cylinder;whiteSpace=wrap;html=1;" parent="orderContainer" vertex="1">
          <mxGeometry x="240" width="220" height="120" as="geometry" />
        </mxCell>
        <mxCell id="orderBus" value="Azure Service Bus (send)" style="shape=hexagon;whiteSpace=wrap;html=1;" parent="orderContainer" vertex="1">
          <mxGeometry x="460" width="220" height="120" as="geometry" />
        </mxCell>
        <mxCell id="deliveryContainer" value="Delivery Service" style="swimlane;childLayout=stackLayout;horizontal=0;startSize=20;fillColor=#dae8fc;" parent="1" vertex="1">
          <mxGeometry x="1060" y="860" width="680" height="120" as="geometry" />
        </mxCell>
        <mxCell id="deliveryFunc" value="DeliveryFunction" style="shape=rectangle;whiteSpace=wrap;html=1;" parent="deliveryContainer" vertex="1">
          <mxGeometry x="20" width="220" height="120" as="geometry" />
        </mxCell>
        <mxCell id="deliveryDb" value="Azure SQL" style="shape=cylinder;whiteSpace=wrap;html=1;" parent="deliveryContainer" vertex="1">
          <mxGeometry x="240" width="220" height="120" as="geometry" />
        </mxCell>
        <mxCell id="deliveryBus" value="Azure Service Bus (recv)" style="shape=hexagon;whiteSpace=wrap;html=1;" parent="deliveryContainer" vertex="1">
          <mxGeometry x="460" width="220" height="120" as="geometry" />
        </mxCell>
        <mxCell id="line2" style="endArrow=block;" parent="1" source="apim" edge="1">
          <mxGeometry relative="1" as="geometry">
            <mxPoint x="1050" y="140" as="targetPoint" />
          </mxGeometry>
        </mxCell>
        <mxCell id="line3" style="endArrow=block;" parent="1" source="apim" target="customerContainer" edge="1">
          <mxGeometry relative="1" as="geometry" />
        </mxCell>
        <mxCell id="line4" style="endArrow=block;" parent="1" source="apim" target="restaurantContainer" edge="1">
          <mxGeometry relative="1" as="geometry" />
        </mxCell>
        <mxCell id="line5" style="endArrow=block;" parent="1" source="apim" target="cartContainer" edge="1">
          <mxGeometry relative="1" as="geometry" />
        </mxCell>
        <mxCell id="line6" style="endArrow=block;entryX=-0.007;entryY=0.417;entryDx=0;entryDy=0;entryPerimeter=0;" parent="1" source="apim" target="orderContainer" edge="1">
          <mxGeometry relative="1" as="geometry" />
        </mxCell>
        <mxCell id="line7" style="endArrow=block;entryX=-0.007;entryY=0.442;entryDx=0;entryDy=0;entryPerimeter=0;" parent="1" source="apim" target="deliveryContainer" edge="1">
          <mxGeometry relative="1" as="geometry" />
        </mxCell>
      </root>
    </mxGraphModel>
  </diagram>
  <diagram name="Component Diagram - IdentityService" id="component2">
    <mxGraphModel dx="2058" dy="804" grid="1" gridSize="10" guides="1" tooltips="1" connect="1" arrows="1" fold="1" page="1" pageScale="1" pageWidth="827" pageHeight="1169" math="0" shadow="0">
      <root>
        <mxCell id="0" />
        <mxCell id="1" parent="0" />
        <mxCell id="authcontroller" value="AuthController (HTTP Trigger)" style="shape=rectangle;whiteSpace=wrap;html=1;fillColor=#d5e8d4;" parent="1" vertex="1">
          <mxGeometry x="80" y="60" width="160" height="60" as="geometry" />
        </mxCell>
        <mxCell id="jwtservice" value="JWT Service" style="shape=rectangle;whiteSpace=wrap;html=1;fillColor=#fff2cc;" parent="1" vertex="1">
          <mxGeometry x="280" y="60" width="140" height="60" as="geometry" />
        </mxCell>
        <mxCell id="userrepo" value="User Repository" style="shape=rectangle;whiteSpace=wrap;html=1;fillColor=#dae8fc;" parent="1" vertex="1">
          <mxGeometry x="180" y="160" width="140" height="60" as="geometry" />
        </mxCell>
        <mxCell id="line21" style="endArrow=block;" parent="1" source="authcontroller" target="jwtservice" edge="1">
          <mxGeometry relative="1" as="geometry" />
        </mxCell>
        <mxCell id="line22" style="endArrow=block;" parent="1" source="authcontroller" target="userrepo" edge="1">
          <mxGeometry relative="1" as="geometry" />
        </mxCell>
        <mxCell id="line23" style="endArrow=block;" parent="1" source="jwtservice" target="userrepo" edge="1">
          <mxGeometry relative="1" as="geometry" />
        </mxCell>
      </root>
    </mxGraphModel>
  </diagram>
  <diagram name="Component Diagram - CustomerService" id="component3">
    <mxGraphModel dx="1000" dy="800" grid="1" gridSize="10" guides="1" tooltips="1" connect="1" arrows="1" fold="1" page="1" pageScale="1" pageWidth="827" pageHeight="1169">
      <root>
        <mxCell id="0" />
        <mxCell id="1" parent="0" />
        <mxCell id="customercontroller" value="CustomerFunction (HTTP Trigger)" style="shape=rectangle;whiteSpace=wrap;html=1;fillColor=#d5e8d4;" vertex="1" parent="1">
          <mxGeometry x="100" y="60" width="180" height="60" as="geometry" />
        </mxCell>
        <mxCell id="customerrepo" value="Customer Repository" style="shape=rectangle;whiteSpace=wrap;html=1;fillColor=#dae8fc;" vertex="1" parent="1">
          <mxGeometry x="100" y="160" width="180" height="60" as="geometry" />
        </mxCell>
        <mxCell id="notificationclient2" value="NotificationClient (SendGrid/SNS)" style="shape=rectangle;whiteSpace=wrap;html=1;fillColor=#e1d5e7;" vertex="1" parent="1">
          <mxGeometry x="320" y="160" width="180" height="60" as="geometry" />
        </mxCell>
        <mxCell id="line31" style="endArrow=block;" edge="1" parent="1" source="customercontroller" target="customerrepo">
          <mxGeometry relative="1" as="geometry" />
        </mxCell>
        <mxCell id="line32" style="endArrow=block;" edge="1" parent="1" source="customercontroller" target="notificationclient2">
          <mxGeometry relative="1" as="geometry" />
        </mxCell>
      </root>
    </mxGraphModel>
  </diagram>
  <diagram name="Component Diagram - RestaurantService" id="component4">
    <mxGraphModel dx="1000" dy="800" grid="1" gridSize="10" guides="1" tooltips="1" connect="1" arrows="1" fold="1" page="1" pageScale="1" pageWidth="827" pageHeight="1169">
      <root>
        <mxCell id="0" />
        <mxCell id="1" parent="0" />
        <mxCell id="restaurantcontroller" value="RestaurantFunction (HTTP Trigger)" style="shape=rectangle;whiteSpace=wrap;html=1;fillColor=#d5e8d4;" vertex="1" parent="1">
          <mxGeometry x="100" y="60" width="200" height="60" as="geometry" />
        </mxCell>
        <mxCell id="menurepo" value="Menu Repository" style="shape=rectangle;whiteSpace=wrap;html=1;fillColor=#dae8fc;" vertex="1" parent="1">
          <mxGeometry x="80" y="160" width="160" height="60" as="geometry" />
        </mxCell>
        <mxCell id="restaurantrepo" value="Restaurant Repository" style="shape=rectangle;whiteSpace=wrap;html=1;fillColor=#dae8fc;" vertex="1" parent="1">
          <mxGeometry x="280" y="160" width="180" height="60" as="geometry" />
        </mxCell>
        <mxCell id="line41" style="endArrow=block;" edge="1" parent="1" source="restaurantcontroller" target="menurepo">
          <mxGeometry relative="1" as="geometry" />
        </mxCell>
        <mxCell id="line42" style="endArrow=block;" edge="1" parent="1" source="restaurantcontroller" target="restaurantrepo">
          <mxGeometry relative="1" as="geometry" />
        </mxCell>
      </root>
    </mxGraphModel>
  </diagram>
  <diagram name="Component Diagram - CartService" id="component5">
    <mxGraphModel dx="1000" dy="800" grid="1" gridSize="10" guides="1" tooltips="1" connect="1" arrows="1" fold="1" page="1" pageScale="1" pageWidth="827" pageHeight="1169">
      <root>
        <mxCell id="0" />
        <mxCell id="1" parent="0" />
        <mxCell id="cartcontroller" value="CartFunction (HTTP Trigger)" style="shape=rectangle;whiteSpace=wrap;html=1;fillColor=#d5e8d4;" vertex="1" parent="1">
          <mxGeometry x="100" y="60" width="200" height="60" as="geometry" />
        </mxCell>
        <mxCell id="cartrepo" value="Cart Repository" style="shape=rectangle;whiteSpace=wrap;html=1;fillColor=#dae8fc;" vertex="1" parent="1">
          <mxGeometry x="100" y="160" width="200" height="60" as="geometry" />
        </mxCell>
        <mxCell id="line51" style="endArrow=block;" edge="1" parent="1" source="cartcontroller" target="cartrepo">
          <mxGeometry relative="1" as="geometry" />
        </mxCell>
      </root>
    </mxGraphModel>
  </diagram>
  <diagram name="Component Diagram - OrderService" id="component1">
    <mxGraphModel dx="2058" dy="804" grid="1" gridSize="10" guides="1" tooltips="1" connect="1" arrows="1" fold="1" page="1" pageScale="1" pageWidth="827" pageHeight="1169" math="0" shadow="0">
      <root>
        <mxCell id="0" />
        <mxCell id="1" parent="0" />
        <mxCell id="ordercontroller" value="OrderController (HTTP Trigger)" style="shape=rectangle;whiteSpace=wrap;html=1;fillColor=#d5e8d4;" parent="1" vertex="1">
          <mxGeometry x="80" y="60" width="160" height="60" as="geometry" />
        </mxCell>
        <mxCell id="orderqueue" value="Order Queue (Azure Service Bus)" style="shape=ellipse;whiteSpace=wrap;html=1;fillColor=#f8cecc;" parent="1" vertex="1">
          <mxGeometry x="280" y="60" width="140" height="60" as="geometry" />
        </mxCell>
        <mxCell id="orderprocessor" value="OrderProcessor (Queue Trigger)" style="shape=rectangle;whiteSpace=wrap;html=1;fillColor=#dae8fc;" parent="1" vertex="1">
          <mxGeometry x="80" y="160" width="160" height="60" as="geometry" />
        </mxCell>
        <mxCell id="orderrepo" value="OrderRepository" style="shape=rectangle;whiteSpace=wrap;html=1;fillColor=#fff2cc;" parent="1" vertex="1">
          <mxGeometry x="280" y="160" width="140" height="60" as="geometry" />
        </mxCell>
        <mxCell id="notificationclient" value="NotificationClient (SendGrid/SNS)" style="shape=rectangle;whiteSpace=wrap;html=1;fillColor=#e1d5e7;" parent="1" vertex="1">
          <mxGeometry x="180" y="260" width="180" height="60" as="geometry" />
        </mxCell>
        <mxCell id="line11" style="endArrow=block;" parent="1" source="ordercontroller" target="orderqueue" edge="1">
          <mxGeometry relative="1" as="geometry" />
        </mxCell>
        <mxCell id="line12" style="endArrow=block;" parent="1" source="orderqueue" target="orderprocessor" edge="1">
          <mxGeometry relative="1" as="geometry" />
        </mxCell>
        <mxCell id="line13" style="endArrow=block;" parent="1" source="orderprocessor" target="orderrepo" edge="1">
          <mxGeometry relative="1" as="geometry" />
        </mxCell>
        <mxCell id="line14" style="endArrow=block;" parent="1" source="orderprocessor" target="notificationclient" edge="1">
          <mxGeometry relative="1" as="geometry" />
        </mxCell>
      </root>
    </mxGraphModel>
  </diagram>
  <diagram name="Component Diagram - DeliveryService" id="component6">
    <mxGraphModel dx="1000" dy="800" grid="1" gridSize="10" guides="1" tooltips="1" connect="1" arrows="1" fold="1" page="1" pageScale="1" pageWidth="827" pageHeight="1169">
      <root>
        <mxCell id="0" />
        <mxCell id="1" parent="0" />
        <mxCell id="deliverycontroller" value="DeliveryFunction (HTTP Trigger)" style="shape=rectangle;whiteSpace=wrap;html=1;fillColor=#d5e8d4;" vertex="1" parent="1">
          <mxGeometry x="100" y="60" width="200" height="60" as="geometry" />
        </mxCell>
        <mxCell id="deliveryrepo" value="Delivery Repository" style="shape=rectangle;whiteSpace=wrap;html=1;fillColor=#dae8fc;" vertex="1" parent="1">
          <mxGeometry x="80" y="160" width="180" height="60" as="geometry" />
        </mxCell>
        <mxCell id="notificationclient3" value="NotificationClient (SendGrid/SNS)" style="shape=rectangle;whiteSpace=wrap;html=1;fillColor=#e1d5e7;" vertex="1" parent="1">
          <mxGeometry x="300" y="160" width="180" height="60" as="geometry" />
        </mxCell>
        <mxCell id="line61" style="endArrow=block;" edge="1" parent="1" source="deliverycontroller" target="deliveryrepo">
          <mxGeometry relative="1" as="geometry" />
        </mxCell>
        <mxCell id="line62" style="endArrow=block;" edge="1" parent="1" source="deliverycontroller" target="notificationclient3">
          <mxGeometry relative="1" as="geometry" />
        </mxCell>
      </root>
    </mxGraphModel>
  </diagram>
  <diagram name="Component Diagram - BackgroundWorker" id="component7">
    <mxGraphModel dx="1000" dy="800" grid="1" gridSize="10" guides="1" tooltips="1" connect="1" arrows="1" fold="1" page="1" pageScale="1" pageWidth="827" pageHeight="1169">
      <root>
        <mxCell id="0" />
        <mxCell id="1" parent="0" />
        <mxCell id="kafkaqueue" value="Kafka/RabbitMQ Topic" style="shape=ellipse;whiteSpace=wrap;html=1;fillColor=#f8cecc;" vertex="1" parent="1">
          <mxGeometry x="80" y="60" width="180" height="60" as="geometry" />
        </mxCell>
        <mxCell id="backgroundworker" value="BackgroundWorkerFunction (Queue Trigger)" style="shape=rectangle;whiteSpace=wrap;html=1;fillColor=#d5e8d4;" vertex="1" parent="1">
          <mxGeometry x="300" y="60" width="200" height="60" as="geometry" />
        </mxCell>
        <mxCell id="bulkprocessor" value="BulkProcessor Service" style="shape=rectangle;whiteSpace=wrap;html=1;fillColor=#dae8fc;" vertex="1" parent="1">
          <mxGeometry x="300" y="160" width="200" height="60" as="geometry" />
        </mxCell>
        <mxCell id="line71" style="endArrow=block;" edge="1" parent="1" source="kafkaqueue" target="backgroundworker">
          <mxGeometry relative="1" as="geometry" />
        </mxCell>
        <mxCell id="line72" style="endArrow=block;" edge="1" parent="1" source="backgroundworker" target="bulkprocessor">
          <mxGeometry relative="1" as="geometry" />
        </mxCell>
      </root>
    </mxGraphModel>
  </diagram>
  <diagram name="Async Communication - Azure Service Bus" id="component8">
    <mxGraphModel dx="1000" dy="800" grid="1" gridSize="10" guides="1" tooltips="1" connect="1" arrows="1" fold="1" page="1" pageScale="1" pageWidth="827" pageHeight="1169">
      <root>
        <mxCell id="0" />
        <mxCell id="1" parent="0" />
        <mxCell id="orderservice" value="OrderFunction (Sender)" style="shape=rectangle;whiteSpace=wrap;html=1;fillColor=#d5e8d4;" vertex="1" parent="1">
          <mxGeometry x="80" y="60" width="180" height="60" as="geometry" />
        </mxCell>
        <mxCell id="azureservicebus" value="Azure Service Bus (Topic/Queue)" style="shape=ellipse;whiteSpace=wrap;html=1;fillColor=#fff2cc;" vertex="1" parent="1">
          <mxGeometry x="300" y="60" width="180" height="60" as="geometry" />
        </mxCell>
        <mxCell id="deliveryservice" value="DeliveryFunction (Receiver - Queue Trigger)" style="shape=rectangle;whiteSpace=wrap;html=1;fillColor=#dae8fc;" vertex="1" parent="1">
          <mxGeometry x="520" y="60" width="200" height="60" as="geometry" />
        </mxCell>
        <mxCell id="line81" style="endArrow=block;" edge="1" parent="1" source="orderservice" target="azureservicebus">
          <mxGeometry relative="1" as="geometry" />
        </mxCell>
        <mxCell id="line82" style="endArrow=block;" edge="1" parent="1" source="azureservicebus" target="deliveryservice">
          <mxGeometry relative="1" as="geometry" />
        </mxCell>
      </root>
    </mxGraphModel>
  </diagram>
</mxfile>
